<?xml version="1.0" encoding="UTF-8" standalone="no"?>
<!DOCTYPE svg PUBLIC "-//W3C//DTD SVG 1.1//EN" "http://www.w3.org/Graphics/SVG/1.1/DTD/svg11.dtd">
<svg width="100%" height="100%" viewBox="0 0 100 100" version="1.1" xmlns="http://www.w3.org/2000/svg" xmlns:xlink="http://www.w3.org/1999/xlink" xml:space="preserve" xmlns:serif="http://www.serif.com/" style="fill-rule:evenodd;clip-rule:evenodd;stroke-linejoin:round;stroke-miterlimit:2;">
    <g transform="matrix(1.5625,0,0,1.5625,0,0)">
        <path d="M0,32C0,14.327 14.327,0 32,0C49.673,0 64,14.327 64,32C64,49.673 49.673,64 32,64L8,64C3.582,64 0,60.418 0,56L0,32Z" style="fill:rgb(109,41,217);fill-rule:nonzero;"/>
    </g>
    <g transform="matrix(1.5625,0,0,1.5625,0,0)">
        <path d="M21,22C19.343,22 18,23.343 18,25C18,26.105 17.105,27 16,27C14.895,27 14,26.105 14,25C14,21.134 17.134,18 21,18C24.866,18 28,21.134 28,25C28,26.105 27.105,27 26,27C24.895,27 24,26.105 24,25C24,23.343 22.657,22 21,22ZM43,22C41.343,22 40,23.343 40,25C40,26.105 39.105,27 38,27C36.895,27 36,26.105 36,25C36,21.134 39.134,18 43,18C46.866,18 50,21.134 50,25C50,26.105 49.105,27 48,27C46.895,27 46,26.105 46,25C46,23.343 44.657,22 43,22Z" style="fill:white;"/>
    </g>
    <g transform="matrix(1.5625,0,0,1.5625,0,0)">
        <path d="M32,47C38.699,47 44.298,42.296 45.676,36.011C45.983,34.608 44.5,33.555 43.102,33.881C40.038,34.596 35.721,35.154 32,35.154C28.279,35.154 23.962,34.596 20.898,33.881C19.5,33.555 18.017,34.608 18.325,36.011C19.702,42.296 25.302,47 32,47Z" style="fill:white;fill-rule:nonzero;"/>
    </g>
</svg>
