<svg width="22" height="22" viewBox="0 0 22 22" fill="none" xmlns="http://www.w3.org/2000/svg">
<path fill-rule="evenodd" clip-rule="evenodd" d="M3 0.5C2.33696 0.5 1.70107 0.763392 1.23223 1.23223C0.763392 1.70107 0.5 2.33696 0.5 3V14.25C0.5 14.913 0.763392 15.5489 1.23223 16.0178C1.70107 16.4866 2.33696 16.75 3 16.75H5.5V19.25C5.5 19.913 5.76339 20.5489 6.23223 21.0178C6.70107 21.4866 7.33696 21.75 8 21.75H19.25C19.913 21.75 20.5489 21.4866 21.0178 21.0178C21.4866 20.5489 21.75 19.913 21.75 19.25V8C21.75 7.33696 21.4866 6.70107 21.0178 6.23223C20.5489 5.76339 19.913 5.5 19.25 5.5H16.75V3C16.75 2.33696 16.4866 1.70107 16.0178 1.23223C15.5489 0.763392 14.913 0.5 14.25 0.5H3ZM14.25 5.5V3H3V14.25H5.5V8C5.5 7.33696 5.76339 6.70107 6.23223 6.23223C6.70107 5.76339 7.33696 5.5 8 5.5H14.25ZM8 8H19.25V19.25H8V8Z" fill="black"/>
</svg>
