<?xml version="1.0" encoding="UTF-8" standalone="no"?>
<!DOCTYPE svg PUBLIC "-//W3C//DTD SVG 1.1//EN" "http://www.w3.org/Graphics/SVG/1.1/DTD/svg11.dtd">
<svg width="100%" height="100%" viewBox="0 0 100 100" version="1.1" xmlns="http://www.w3.org/2000/svg" xmlns:xlink="http://www.w3.org/1999/xlink" xml:space="preserve" xmlns:serif="http://www.serif.com/" style="fill-rule:evenodd;clip-rule:evenodd;stroke-linecap:round;">
    <g transform="matrix(0.178571,0,0,0.178571,-2.5,-2.5)">
        <circle cx="294" cy="294" r="280" style="fill:white;"/>
    </g>
    <g transform="matrix(0.178571,0,0,0.178571,-2.5,-2.5)">
        <path d="M236.335,273.424C178.936,310.445 175.346,371.396 193.444,415.703C213.051,463.702 265.565,495.191 319.749,485.278C369.794,476.123 407.594,426.598 407.56,392.471" style="fill:none;fill-rule:nonzero;stroke:url(#_Linear1);stroke-width:42.7px;"/>
    </g>
    <g transform="matrix(0.178571,0,0,0.178571,-2.5,-2.5)">
        <path d="M182.006,132.756C123.597,176.455 123.277,241.26 144.877,286.743C168.276,336.015 225.431,365.226 281.992,350.477C334.232,336.855 371.267,281.459 369.29,245.335" style="fill:none;fill-rule:nonzero;stroke:url(#_Linear2);stroke-width:37.96px;"/>
    </g>
    <g transform="matrix(0.178571,0,0,0.178571,-2.5,-2.5)">
        <path d="M498.978,292.876C498.978,336.516 484.72,378.962 458.375,413.753C432.03,448.544 395.04,473.775 353.034,485.607C311.028,497.439 266.307,495.224 225.676,479.298C185.045,463.373 150.73,434.609 127.952,397.385C105.175,360.16 95.182,316.513 99.495,273.087C103.808,229.66 122.191,188.831 151.846,156.814C181.5,124.797 220.803,103.345 263.772,95.723" style="fill:none;fill-rule:nonzero;stroke:url(#_Linear3);stroke-width:47.45px;"/>
    </g>
    <defs>
        <linearGradient id="_Linear1" x1="0" y1="0" x2="1" y2="0" gradientUnits="userSpaceOnUse" gradientTransform="matrix(-81.531,119.436,-119.436,-81.531,312.419,344.594)"><stop offset="0" style="stop-color:rgb(255,154,112);stop-opacity:1"/><stop offset="1" style="stop-color:rgb(225,78,22);stop-opacity:1"/></linearGradient>
        <linearGradient id="_Linear2" x1="0" y1="0" x2="1" y2="0" gradientUnits="userSpaceOnUse" gradientTransform="matrix(-91.307,155.287,-155.287,-91.307,266.867,192.286)"><stop offset="0" style="stop-color:rgb(255,154,112);stop-opacity:1"/><stop offset="1" style="stop-color:rgb(225,78,22);stop-opacity:1"/></linearGradient>
        <linearGradient id="_Linear3" x1="0" y1="0" x2="1" y2="0" gradientUnits="userSpaceOnUse" gradientTransform="matrix(-231.073,258.593,-258.593,-231.073,395.928,177.102)"><stop offset="0" style="stop-color:rgb(255,154,112);stop-opacity:1"/><stop offset="1" style="stop-color:rgb(225,78,22);stop-opacity:1"/></linearGradient>
    </defs>
</svg>
