<?xml version="1.0" encoding="utf-8"?>
<!-- Generator: Adobe Illustrator 26.0.3, SVG Export Plug-In . SVG Version: 6.00 Build 0)  -->
<svg version="1.1" id="Layer_1" xmlns="http://www.w3.org/2000/svg" xmlns:xlink="http://www.w3.org/1999/xlink" x="0px" y="0px"
	 viewBox="0 0 586 586" style="enable-background:new 0 0 586 586;" xml:space="preserve">
<style type="text/css">
	.st0{fill:#FFFFFF;filter:url(#Adobe_OpacityMaskFilter);}
	.st1{mask:url(#path-1-outside-1_2913_43_00000086656047938470744150000007626440033217545096_);fill:#6453FF;}
	.st2{fill:#6453FF;}
</style>
<g>
	<g>
		<defs>
			<filter id="Adobe_OpacityMaskFilter" filterUnits="userSpaceOnUse" x="105.4" y="0" width="376.6" height="586">
				<feColorMatrix  type="matrix" values="1 0 0 0 0  0 1 0 0 0  0 0 1 0 0  0 0 0 1 0"/>
			</filter>
		</defs>
		
			<mask maskUnits="userSpaceOnUse" x="105.4" y="0" width="376.6" height="586" id="path-1-outside-1_2913_43_00000086656047938470744150000007626440033217545096_">
			<rect x="104.5" y="-0.3" class="st0" width="378.4" height="586.5"/>
			<path d="M126.2,532.6V45l270.8-23.7l64.2,32.1v104.6l-159.8,13.5v39.8l72.5-6.4l64.2,32.1v104.6L301.3,353v201.5l-111,10.3
				L126.2,532.6z M367.4,303.6v-91.8l-136.7,11.5v-89.8l159.8-13.5V28.3L132.6,50.8v475.5l98.2-9V315.1L367.4,303.6z"/>
		</mask>
		<path class="st1" d="M126.2,532.6h-20.8v12.9l11.5,5.8L126.2,532.6z M126.2,45l-1.8-20.7l-19,1.7V45H126.2z M396.9,21.3l9.3-18.6
			L401,0l-5.9,0.5L396.9,21.3z M461.1,53.3h20.8V40.5l-11.5-5.8L461.1,53.3z M461.1,157.9l1.7,20.7l19.1-1.6v-19.1H461.1z
			 M301.3,171.4l-1.7-20.7l-19.1,1.6v19.1H301.3z M301.3,211.2h-20.8v22.7l22.7-2L301.3,211.2z M373.8,204.8l9.3-18.6l-5.3-2.6
			L372,184L373.8,204.8z M438,236.8h20.8V224l-11.5-5.8L438,236.8z M438,341.4l1.8,20.7l19.1-1.6v-19.1H438z M301.3,353l-1.8-20.7
			l-19.1,1.6V353H301.3z M301.3,554.5l1.9,20.7l18.9-1.7v-19H301.3z M190.3,564.7l-9.3,18.6l5.3,2.7l5.9-0.5L190.3,564.7z
			 M367.4,303.6l1.8,20.7l19.1-1.6v-19.1H367.4z M367.4,211.8h20.8v-22.6l-22.6,1.9L367.4,211.8z M230.8,223.4h-20.8V246l22.6-1.9
			L230.8,223.4z M230.8,133.5l-1.7-20.7l-19.1,1.6v19.1H230.8z M390.5,120.1l1.7,20.7l19.1-1.6v-19.1H390.5z M390.5,28.3h20.8V5.6
			l-22.6,2L390.5,28.3z M132.6,50.8L130.8,30l-19,1.7v19.1H132.6z M132.6,526.2h-20.8V549l22.7-2.1L132.6,526.2z M230.8,517.2
			l1.9,20.7l18.9-1.7v-19H230.8z M230.8,315.1l-1.8-20.7l-19.1,1.6v19.1H230.8z M147,532.6V45h-41.6v487.7H147z M128,65.7L398.8,42
			l-3.6-41.5L124.3,24.3L128,65.7z M387.6,39.9L451.8,72l18.6-37.2L406.3,2.6L387.6,39.9z M440.3,53.3v104.6h41.6V53.3H440.3z
			 M459.4,137.2l-159.8,13.5l3.5,41.5l159.8-13.5L459.4,137.2z M280.5,171.4v39.8h41.6v-39.8H280.5z M303.2,231.9l72.5-6.4L372,184
			l-72.5,6.4L303.2,231.9z M364.5,223.4l64.2,32.1l18.6-37.2l-64.2-32.1L364.5,223.4z M417.2,236.8v104.6h41.6V236.8H417.2z
			 M436.3,320.7l-136.7,11.5l3.5,41.5l136.7-11.5L436.3,320.7z M280.5,353v201.5h41.6V353H280.5z M299.4,533.7l-111,10.3l3.8,41.5
			l111-10.3L299.4,533.7z M199.6,546.1L135.5,514l-18.6,37.2l64.2,32.1L199.6,546.1z M388.2,303.6v-91.8h-41.6v91.8H388.2z
			 M365.7,191.1L229,202.6l3.5,41.5l136.7-11.5L365.7,191.1z M251.6,223.4v-89.8h-41.6v89.8H251.6z M232.5,154.3l159.8-13.5
			l-3.5-41.5L229,112.8L232.5,154.3z M411.3,120.1V28.3h-41.6v91.8H411.3z M388.7,7.6L130.8,30l3.6,41.5L392.3,49L388.7,7.6z
			 M111.8,50.8v475.5h41.6V50.8H111.8z M134.5,547l98.2-9l-3.8-41.5l-98.2,9L134.5,547z M251.6,517.2V315.1h-41.6v202.1H251.6z
			 M232.5,335.9l136.7-11.5l-3.5-41.5L229,294.4L232.5,335.9z"/>
		<path class="st2" d="M218.9,562.1c22.9,6.2,46.9,9.5,71.7,9.5c150.8,0,273.1-122.3,273.1-273.1c0-86.3-40.1-163.3-102.6-213.3
			v72.7l-159.8,13.5v39.8l72.5-6.4l64.2,32.1v104.6L301.3,353v201.5L218.9,562.1z"/>
		<path class="st2" d="M126.2,80.5c-66,49.8-108.6,128.9-108.6,218s42.6,168.2,108.6,218V80.5z"/>
		<path class="st2" d="M378.2,45.1L148,65.3l-4.9,446.3l74.7-8.6V307.7l135.9-14.1v-68.6l-135.9,5.5V125.3l160.4-17.1V45.1z"/>
	</g>
</g>
</svg>
