<?xml version="1.0" encoding="UTF-8" standalone="no"?>
<!DOCTYPE svg PUBLIC "-//W3C//DTD SVG 1.1//EN" "http://www.w3.org/Graphics/SVG/1.1/DTD/svg11.dtd">
<svg width="100%" height="100%" viewBox="0 0 246 200" version="1.1" xmlns="http://www.w3.org/2000/svg" xmlns:xlink="http://www.w3.org/1999/xlink" xml:space="preserve" xmlns:serif="http://www.serif.com/" style="fill-rule:evenodd;clip-rule:evenodd;">
    <g transform="matrix(2.48994,0,0,2.5098,-1.94527,-25.4902)">
        <g transform="matrix(4.54545,0,0,4.54545,0,0)">
            <path d="M8.938,3.266C6.872,3.266 4.929,4.07 3.468,5.531C2.008,6.992 1.203,8.934 1.203,11C1.203,13.066 2.008,15.008 3.468,16.469C4.929,17.93 6.872,18.734 8.938,18.734C10.707,18.734 12.373,18.152 13.754,17.052C14.648,16.339 15.373,15.435 15.875,14.42C15.617,14.507 15.331,14.581 15.016,14.64C13.759,14.877 12.191,14.842 10.823,14.546C8.754,14.1 7.751,13.244 7.275,12.605C7.162,12.453 7.141,12.252 7.22,12.08C7.3,11.908 7.467,11.794 7.656,11.782C10.767,11.585 12.717,10.843 13.806,10.254C14.711,9.765 15.747,8.953 15.936,8.141C15.945,8.098 15.96,7.923 15.926,7.764C15.889,7.59 15.78,7.39 15.739,7.315C14.383,4.817 11.777,3.266 8.938,3.266Z" style="fill:white;fill-rule:nonzero;"/>
        </g>
        <g transform="matrix(4.54545,0,0,4.54545,0,0)">
            <path d="M8.938,19.766C6.596,19.766 4.395,18.854 2.739,17.198C1.084,15.542 0.172,13.341 0.172,11C0.172,8.659 1.084,6.457 2.739,4.802C4.395,3.146 6.596,2.234 8.938,2.234C12.155,2.234 15.109,3.992 16.645,6.823C16.706,6.934 16.866,7.23 16.935,7.549C17.009,7.9 16.973,8.234 16.94,8.375C16.731,9.273 15.915,10.194 14.679,10.943C16.177,11.34 17.013,11.77 17.333,12.291C17.484,12.539 17.526,12.81 17.456,13.076C17.001,14.951 15.915,16.649 14.397,17.859C13.638,18.464 12.791,18.935 11.88,19.26C10.937,19.595 9.947,19.766 8.938,19.766L8.938,19.766ZM8.938,3.266C6.872,3.266 4.929,4.07 3.468,5.531C2.008,6.992 1.203,8.934 1.203,11C1.203,13.066 2.008,15.008 3.468,16.469C4.929,17.93 6.872,18.734 8.938,18.734C10.707,18.734 12.373,18.152 13.754,17.052C14.648,16.339 15.373,15.435 15.875,14.42C15.617,14.507 15.331,14.581 15.016,14.64C13.759,14.877 12.191,14.842 10.823,14.546C8.754,14.1 7.751,13.244 7.275,12.605C7.162,12.453 7.141,12.252 7.22,12.08C7.3,11.908 7.467,11.794 7.656,11.782C10.767,11.585 12.717,10.843 13.806,10.254C14.711,9.765 15.747,8.953 15.936,8.141C15.945,8.098 15.96,7.923 15.926,7.764C15.889,7.59 15.78,7.39 15.739,7.315C14.383,4.817 11.777,3.266 8.938,3.266Z" style="fill-rule:nonzero;"/>
        </g>
        <g transform="matrix(4.54545,0,0,4.54545,0,0)">
            <circle cx="5.435" cy="10.065" r="1.035" style="stroke:black;stroke-width:1px;"/>
        </g>
        <g transform="matrix(4.54545,0,0,4.54545,0,0)">
            <path d="M21.262,10.654L19.059,10.654C18.775,10.654 18.544,10.885 18.544,11.169C18.544,11.454 18.775,11.685 19.059,11.685L21.262,11.685C21.546,11.685 21.777,11.454 21.777,11.169C21.777,10.885 21.546,10.654 21.262,10.654Z" style="fill-rule:nonzero;"/>
        </g>
        <g transform="matrix(4.54545,0,0,4.54545,0,0)">
            <path d="M20.746,14.482L18.839,12.892C18.62,12.71 18.295,12.739 18.112,12.958C17.93,13.177 17.96,13.502 18.178,13.684L20.086,15.274C20.182,15.354 20.299,15.393 20.415,15.393C20.563,15.393 20.71,15.33 20.812,15.208C20.994,14.989 20.964,14.664 20.746,14.482L20.746,14.482Z" style="fill-rule:nonzero;"/>
        </g>
        <g transform="matrix(4.54545,0,0,4.54545,0,0)">
            <path d="M18.509,9.566C18.625,9.566 18.742,9.526 18.839,9.446L20.746,7.856C20.965,7.674 20.994,7.349 20.812,7.13C20.63,6.911 20.305,6.882 20.086,7.064L18.178,8.654C17.96,8.836 17.93,9.161 18.112,9.38C18.214,9.502 18.361,9.566 18.509,9.566L18.509,9.566Z" style="fill-rule:nonzero;"/>
        </g>
    </g>
</svg>
