<?xml version="1.0" encoding="UTF-8" standalone="no"?>
<!DOCTYPE svg PUBLIC "-//W3C//DTD SVG 1.1//EN" "http://www.w3.org/Graphics/SVG/1.1/DTD/svg11.dtd">
<svg width="100%" height="100%" viewBox="0 0 100 100" version="1.1" xmlns="http://www.w3.org/2000/svg" xmlns:xlink="http://www.w3.org/1999/xlink" xml:space="preserve" xmlns:serif="http://www.serif.com/" style="fill-rule:evenodd;clip-rule:evenodd;stroke-linejoin:round;stroke-miterlimit:2;">
    <g>
        <circle cx="50" cy="50" r="50" style="fill:rgb(125,95,191);"/>
    </g>
    <g id="Logo-Curve-Cut" transform="matrix(0.141013,0.0293938,-0.0271189,0.130099,30.7655,9.45694)">
        <path d="M135.714,552.954C133.533,552.644 127.062,551.755 121.335,550.98C72.692,544.392 36.652,520.458 16.975,481.675C8.677,465.321 8.436,465.526 26.16,473.854C77.644,498.045 137.114,515.901 204.293,527.337C216.562,529.425 226.846,531.381 227.148,531.683C228.016,532.551 207.177,543.041 198.82,545.942C185.749,550.479 173.299,552.554 156.207,553.044C147.117,553.305 137.896,553.264 135.714,552.954ZM340.982,132.18C340.435,136.651 336.302,159.086 336.116,162.097C335.791,167.373 306.322,368.616 303.452,385.162C293.238,444.047 279.487,479.238 256.046,506.481C248.372,515.399 245.899,517.447 242.389,517.788C233.256,518.677 163.626,505.332 129.765,496.203C93.74,486.491 49.589,469.673 19.772,454.306C2.75,445.534 4.145,447.375 1.44,430.113C-0.485,417.827 -0.479,377.593 1.451,362.723C2.298,356.198 3.106,350.844 3.248,350.824C3.389,350.804 23.905,350.951 48.84,351.152L94.175,351.517L93.186,356.44C92.642,359.148 92.203,371.478 92.21,383.84C92.22,401.252 92.751,408.233 94.569,414.83C102.408,443.281 120.576,457.216 149.828,457.216C183.546,457.216 197.494,437.336 209.133,372.686C210.516,365.005 223.314,278.109 237.573,179.584C251.833,81.06 263.693,0.255 263.929,0.019C264.527,-0.578 356.198,12.906 357.002,13.709C357.361,14.068 353.6,42.336 348.645,76.526C345.165,100.54 342.273,121.63 340.982,132.18Z" style="fill:white;"/>
    </g>
</svg>
