<?xml version="1.0" encoding="UTF-8" standalone="no"?>
<!DOCTYPE svg PUBLIC "-//W3C//DTD SVG 1.1//EN" "http://www.w3.org/Graphics/SVG/1.1/DTD/svg11.dtd">
<svg width="100%" height="100%" viewBox="0 0 100 100" version="1.1" xmlns="http://www.w3.org/2000/svg" xmlns:xlink="http://www.w3.org/1999/xlink" xml:space="preserve" xmlns:serif="http://www.serif.com/" style="fill-rule:evenodd;clip-rule:evenodd;stroke-linejoin:round;stroke-miterlimit:2;">
    <g transform="matrix(1.5625,0,0,1.5625,0,0)">
        <g transform="matrix(0.64,0,0,0.64,0,0)">
            <circle cx="50" cy="50" r="50" style="fill:white;"/>
        </g>
        <g transform="matrix(0.990437,0,0,0.990437,-24.4519,-18.3265)">
            <path d="M26.452,40.264C30.828,27.605 42.858,18.503 56.997,18.503C71.136,18.503 83.166,27.605 87.542,40.264L26.452,40.264Z" style="fill:rgb(125,95,191);"/>
        </g>
        <g transform="matrix(-0.990437,-1.21294e-16,1.21294e-16,-0.990437,88.4519,82.3265)">
            <path d="M26.452,40.264C30.828,27.605 42.858,18.503 56.997,18.503C71.136,18.503 83.166,27.605 87.542,40.264L26.452,40.264Z" style="fill:rgb(125,95,191);"/>
        </g>
    </g>
    <g id="Logo-Curve-Cut" transform="matrix(0.0411136,0,0,0.0422982,5.72197,37.8037)">
        <path d="M511.054,557.571C496.499,556.494 483.045,552.568 468.221,545.07C452.552,537.145 452.551,537.15 469.664,535.303C500.6,531.965 545.585,523.145 571.345,515.366C599.267,506.934 632.792,491.13 668.198,469.708L686.565,458.596L685.664,462.864C683.979,470.85 676.721,486.666 670.42,496.083C662.773,507.51 649.226,520.779 636.776,529.038C608.435,547.837 552.149,560.611 511.054,557.571ZM1206.65,556.248C1206.26,555.226 1205.8,509.35 1205.62,454.301L1205.29,354.211L1173.56,370.67C1156.11,379.722 1141.53,387.123 1141.17,387.117C1140.43,387.102 1051.27,216.189 1051.27,214.787C1051.27,212.969 1123.52,181.122 1124.59,182.468C1124.77,182.695 1143,217.629 1165.1,260.099L1205.29,337.317L1205.97,157.197L1210.92,155.878C1232.92,150.014 1268.92,143.61 1300.48,139.947C1360.87,132.937 1428.63,133.896 1494.39,142.693L1505.86,144.226L1510.44,154.299C1512.95,159.839 1515.44,166.348 1515.95,168.763C1517.82,177.454 1517.82,171.94 1515.95,159.69C1514.9,152.812 1514.04,146.727 1514.02,146.168C1514.01,145.608 1515.34,145.438 1516.98,145.79C1518.61,146.141 1529.77,148.249 1541.76,150.474C1569.63,155.641 1595.8,161.643 1597.14,163.178C1597.72,163.834 1608.12,232.458 1620.25,315.675C1632.38,398.893 1642.44,467.08 1642.61,467.203C1642.77,467.327 1687.14,460.925 1741.2,452.979C1795.27,445.033 1839.84,438.872 1840.26,439.29C1840.68,439.707 1842.94,452.686 1845.28,468.133L1849.54,496.218L1849.81,304.866L1852.79,305.691C1859.61,307.58 1891.3,313.048 1906.66,314.985C1950.37,320.497 1999.56,323.263 2076.22,324.523L2131.42,325.429L2131.42,350.126L1930.46,350.126L1930.46,478.37L2153.93,478.37L2153.23,557.034L1849.81,557.707L1849.81,516.877L1845.52,517.553C1798.56,524.939 1575.25,557.032 1574.64,556.479C1574.19,556.057 1562.29,476.79 1548.2,380.33C1534.12,283.869 1522.16,205.634 1521.62,206.474C1521.09,207.314 1520.64,211.15 1520.63,214.998C1520.59,230.723 1513.4,254.268 1503.8,270.14C1495.09,284.541 1481.65,298.085 1468.24,305.977C1466.07,307.255 1467.02,308.025 1475.83,312.092C1502.04,324.203 1520.17,343.03 1531.25,369.644C1543.27,398.519 1543.68,439.106 1532.29,472.421C1517.67,515.174 1491.49,541.502 1454.11,551.027C1437.22,555.332 1411.39,556.429 1306.8,557.289C1222.07,557.985 1207.24,557.831 1206.65,556.248ZM1417.47,475.122C1437,470.211 1449.85,457.127 1455.11,436.776C1457.51,427.511 1457.78,408.706 1455.65,398.778C1452.05,381.965 1441.16,367.491 1427.34,361.164C1413.35,354.762 1404.11,353.884 1343.12,353.162L1286.6,352.493L1286.6,478.706L1347.75,477.992C1398.16,477.404 1410.4,476.9 1417.47,475.122ZM1405.94,271.049C1422.61,266.298 1433.54,256.501 1439.43,241.053C1443.28,230.943 1442.98,205.453 1438.9,195.246C1432.79,179.979 1420.18,170.367 1402.94,167.822C1398.22,167.124 1370.26,166.359 1340.81,166.123L1287.26,165.694L1286.91,218.576C1286.72,247.661 1286.89,272.292 1287.28,273.312C1287.88,274.879 1296.43,275.045 1342.49,274.383C1390.87,273.689 1398,273.314 1405.94,271.049L1405.94,271.049ZM779.33,487.955C743.613,419.668 743.549,419.532 746.355,417.299C763.953,403.293 808.568,371.334 809.353,372.172C811.49,374.452 886.044,518.573 885.669,519.698C885.228,521.02 818.715,556.249 816.516,556.325C815.746,556.35 799.012,525.585 779.33,487.955ZM135.714,552.954C133.533,552.644 127.062,551.755 121.335,550.98C72.692,544.392 36.652,520.458 16.975,481.675C8.677,465.321 8.436,465.526 26.16,473.854C77.644,498.045 137.114,515.901 204.293,527.337C216.562,529.425 226.846,531.381 227.148,531.683C228.016,532.551 207.177,543.041 198.82,545.942C185.749,550.479 173.299,552.554 156.207,553.044C147.117,553.305 137.896,553.264 135.714,552.954ZM432.484,517.041C416.306,498.75 408.43,482.043 396.291,440.27C389.858,418.135 383.174,387.263 359.172,268.817C340.092,174.663 336.396,157.555 336.116,162.097C335.791,167.373 306.322,368.616 303.452,385.162C293.238,444.047 279.487,479.238 256.046,506.481C248.372,515.399 245.899,517.447 242.389,517.788C233.256,518.677 163.626,505.332 129.765,496.203C93.74,486.491 49.589,469.673 19.772,454.306C2.75,445.534 4.145,447.375 1.44,430.113C-0.485,417.827 -0.479,377.593 1.451,362.723C2.298,356.198 3.106,350.844 3.248,350.824C3.389,350.804 23.905,350.951 48.84,351.152L94.175,351.517L93.186,356.44C92.642,359.148 92.203,371.478 92.21,383.84C92.22,401.252 92.751,408.233 94.569,414.83C102.408,443.281 120.576,457.216 149.828,457.216C183.546,457.216 197.494,437.336 209.133,372.686C210.516,365.005 223.314,278.109 237.573,179.584C251.833,81.06 263.693,0.255 263.929,0.019C264.527,-0.578 356.198,12.906 357.002,13.709C357.361,14.068 353.6,42.336 348.645,76.526C343.69,110.716 339.927,138.98 340.282,139.335C340.637,139.691 355.698,136.982 373.75,133.317C391.803,129.652 406.968,127.108 407.451,127.664C407.935,128.22 418.88,180.733 431.775,244.359C465.771,412.113 468.992,426.122 477.21,442.012C483.398,453.978 497.82,468.675 508.119,473.51C519.311,478.765 527.756,480.14 543.547,479.281C573.97,477.625 596.551,465.377 606.653,445.052C611.989,434.315 613.581,427.422 613.614,414.909C613.665,395.569 609.348,371.849 576.101,208.797C564.032,149.609 554.158,100.181 554.158,98.957C554.158,97.107 560.312,95.468 590.719,89.22C610.828,85.088 627.426,81.864 627.603,82.055C627.907,82.383 663.892,258.514 663.892,259.676C663.892,261.131 668.236,259.09 696.783,244.216C713.682,235.412 727.679,228.421 727.888,228.681C728.097,228.942 732.627,237.629 737.953,247.987C743.28,258.345 747.931,266.527 748.289,266.17C748.647,265.812 750.301,260.135 751.964,253.553C761.783,214.713 784.3,187.371 818.138,173.202C834.475,166.361 857.752,164.334 873.497,168.38C882.075,170.584 898.465,177.913 904.624,182.299C909.019,185.428 908.492,186.21 911.794,171.643C918.696,141.191 935.19,115.674 957.603,100.774C974.621,89.461 998.711,81.709 1016.68,81.764C1039.61,81.834 1066.92,94.609 1082.35,112.474C1093.19,125.034 1118.88,167.939 1116.43,169.4C1115.86,169.743 1107.25,173.349 1097.31,177.413C1087.36,181.477 1071.48,188.385 1062.02,192.765C1052.55,197.146 1044.33,200.691 1043.74,200.644C1043.15,200.599 1039.4,195.466 1035.4,189.244C1021.79,168.072 1011.66,160.731 996.15,160.821C976.084,160.936 956.737,177.311 950.855,199.155C950.017,202.265 949.334,209.989 949.335,216.32C949.338,226.937 950.073,230.697 955.599,248.368C956.015,249.696 954.451,251.395 951.056,253.303C946.995,255.585 912.012,278.62 889.944,293.542L886.613,295.794L877.875,280.974C867.815,263.912 859.214,253.753 850.485,248.621C845.388,245.625 842.799,245.02 835.084,245.02C827.25,245.02 824.421,245.703 816.866,249.419C805.491,255.013 796.184,264.317 790.585,275.691C786.34,284.313 786.186,285.185 786.186,300.52C786.186,315.487 786.466,317.183 790.989,329.634C793.631,336.905 797.28,346.137 799.099,350.148L802.405,357.441L770.35,381.133C752.719,394.164 737.835,404.864 737.273,404.91C736.346,404.986 719.573,373.45 681.541,300.123C673.876,285.346 667.438,273.448 667.232,273.681C667.027,273.914 669.401,286.602 672.509,301.875C684.443,360.516 690.334,401.198 690.334,424.96L690.334,438.332L682.732,443.396C655.119,461.79 618.751,481.51 593.16,491.963C560.745,505.204 520.859,514.349 467.56,520.76C437.84,524.335 439.048,524.463 432.484,517.041ZM974.85,464.818C960.011,438.374 893.759,308.719 894.723,308.01C901.221,303.234 960.68,264.19 961.455,264.19C962.019,264.19 963.122,266.123 963.906,268.487C964.69,270.85 984.362,309.33 1007.62,353.998C1030.88,398.666 1049.77,435.302 1049.6,435.413C1048.08,436.379 979.565,471.759 979.211,471.759C978.955,471.759 976.992,468.636 974.85,464.818ZM2050.11,309.561C1975.02,308.252 1907.77,302.173 1861.38,292.501L1849.81,290.089L1849.81,87.029L2145.96,87.029L2145.96,166.355L1930.46,166.355L1930.46,270.784L2130.76,271.461L2131.49,310.463L2100.05,310.173C2082.76,310.014 2060.29,309.738 2050.11,309.561ZM1572.83,141.815C1561.93,139.364 1543.78,135.772 1532.51,133.835C1521.24,131.897 1511.91,130.234 1511.78,130.139C1511.02,129.582 1507.1,97.458 1507.71,96.84C1508.37,96.181 1585.77,84.368 1586.24,84.855C1586.64,85.276 1594.65,141.497 1594.65,143.918C1594.65,145.351 1594.2,146.467 1593.66,146.398C1593.11,146.329 1583.74,144.267 1572.83,141.815ZM1206.25,114.462L1206.61,87.69L1278.01,87.315C1356.14,86.904 1416.08,88.582 1432.95,91.65C1453.98,95.477 1471.18,104.25 1485.71,118.577C1490.43,123.22 1494.09,127.215 1493.85,127.456C1493.6,127.697 1489.56,127.362 1484.86,126.711C1469.33,124.56 1427.79,121.512 1402.28,120.65C1348.27,118.827 1272.72,126.26 1219.76,138.609C1213.56,140.053 1207.91,141.235 1207.19,141.235C1206.38,141.235 1206.03,131.345 1206.25,114.462Z"/>
    </g>
</svg>
