<?xml version="1.0" encoding="UTF-8" standalone="no"?>
<!DOCTYPE svg PUBLIC "-//W3C//DTD SVG 1.1//EN" "http://www.w3.org/Graphics/SVG/1.1/DTD/svg11.dtd">
<svg width="100%" height="100%" viewBox="0 0 100 100" version="1.1" xmlns="http://www.w3.org/2000/svg" xmlns:xlink="http://www.w3.org/1999/xlink" xml:space="preserve" xmlns:serif="http://www.serif.com/" style="fill-rule:evenodd;clip-rule:evenodd;stroke-linejoin:round;stroke-miterlimit:2;">
    <g transform="matrix(1.5625,0,0,1.5625,0,0)">
        <g transform="matrix(0.64,0,0,0.64,0,0)">
            <circle cx="50" cy="50" r="50" style="fill:rgb(115,115,115);"/>
        </g>
        <g transform="matrix(0.567142,0,0,0.567142,3.64288,3.64288)">
            <circle cx="50" cy="50" r="50" style="fill:white;"/>
        </g>
    </g>
    <g id="logo.svg" transform="matrix(0.0649685,0,0,0.0649685,50,53.2725)">
        <g transform="matrix(1,0,0,1,-543,-301)">
            <g>
                <path d="M535.5,161.5C508.698,188.969 481.698,215.969 454.5,242.5C418.458,265.918 381.458,267.418 343.5,247C338.692,243.692 334.025,240.192 329.5,236.5C305.29,211.824 280.79,187.491 256,163.5C255.536,162.906 255.369,162.239 255.5,161.5C281.993,134.173 308.993,107.34 336.5,81C367.953,60.1 401.287,56.767 436.5,71C445.638,75.15 453.971,80.483 461.5,87C486.368,111.701 511.035,136.535 535.5,161.5Z" style="fill:rgb(58,131,246);"/>
            </g>
            <g>
                <path d="M1019.5,240.5C977.506,268.772 935.839,268.272 894.5,239C868.965,213.298 843.299,187.798 817.5,162.5L817.5,161.5C841.605,136.895 865.938,112.395 890.5,88C922.505,61.166 958.171,55.166 997.5,70C1041.99,92.532 1061.49,128.699 1056,178.5C1051.52,203.787 1039.35,224.454 1019.5,240.5Z" style="fill:rgb(135,233,249);"/>
            </g>
            <g>
                <path d="M817.5,161.5L817.5,162.5C790.366,189.303 763.366,215.969 736.5,242.5C698.361,267.339 659.361,267.839 619.5,244C591.279,216.945 563.612,189.445 536.5,161.5C562.66,134.507 589.327,108.007 616.5,82C644.942,61.815 675.942,56.815 709.5,67C719.206,70.389 728.206,75.055 736.5,81C764.034,107.367 791.034,134.201 817.5,161.5Z" style="fill:rgb(82,179,248);"/>
            </g>
            <g>
                <path d="M254.5,161.5C229.954,186.546 205.287,211.38 180.5,236C147.351,262.52 111.018,267.853 71.5,252C64.609,248.062 57.942,243.895 51.5,239.5C23.57,215.277 11.403,184.61 15,147.5C24.634,100.199 53.134,72.032 100.5,63C132.88,59.571 160.88,68.904 184.5,91C208.035,114.368 231.368,137.868 254.5,161.5Z" style="fill:rgb(17,47,237);"/>
            </g>
            <g>
                <path d="M254.5,161.5L255.5,161.5C255.369,162.239 255.536,162.906 256,163.5C280.79,187.491 305.29,211.824 329.5,236.5C334.025,240.192 338.692,243.692 343.5,247C381.458,267.418 418.458,265.918 454.5,242.5C434.833,262.5 415.167,282.5 395.5,302.5C370.035,327.465 344.701,352.632 319.5,378C288.646,401.834 254.646,407.501 217.5,395C209.082,391.045 201.082,386.545 193.5,381.5C145.833,334.5 98.5,287.167 51.5,239.5C57.942,243.895 64.609,248.062 71.5,252C111.018,267.853 147.351,262.52 180.5,236C205.287,211.38 229.954,186.546 254.5,161.5Z" style="fill:rgb(38,91,245);"/>
            </g>
            <g>
                <path d="M535.5,161.5L536.5,161.5C563.612,189.445 591.279,216.945 619.5,244C659.361,267.839 698.361,267.339 736.5,242.5C716.833,262.5 697.167,282.5 677.5,302.5C676.317,303.504 674.984,304.338 673.5,305C658.305,320.107 643.305,335.44 628.5,351C624.509,353.492 621.175,356.658 618.5,360.5C617.675,361.386 616.675,361.719 615.5,361.5C609.023,370.655 601.357,378.988 592.5,386.5C592.44,385.957 592.107,385.624 591.5,385.5C560.986,403.679 528.986,406.513 495.5,394C485.344,388.837 476.01,382.504 467.5,375C443.271,350.938 419.271,326.772 395.5,302.5C415.167,282.5 434.833,262.5 454.5,242.5C481.698,215.969 508.698,188.969 535.5,161.5Z" style="fill:rgb(69,155,247);"/>
            </g>
            <g>
                <path d="M817.5,162.5C843.299,187.798 868.965,213.298 894.5,239C935.839,268.272 977.506,268.772 1019.5,240.5C973.833,286.833 927.833,332.833 881.5,378.5C847.606,404.513 810.94,408.68 771.5,391C765.521,387.03 759.521,383.03 753.5,379C727.992,353.659 702.659,328.159 677.5,302.5C697.167,282.5 716.833,262.5 736.5,242.5C763.366,215.969 790.366,189.303 817.5,162.5Z" style="fill:rgb(95,207,249);"/>
            </g>
            <g>
                <path d="M395.5,302.5C419.271,326.772 443.271,350.938 467.5,375C476.01,382.504 485.344,388.837 495.5,394C528.986,406.513 560.986,403.679 591.5,385.5C592.107,385.624 592.44,385.957 592.5,386.5C573.779,405.887 554.779,424.887 535.5,443.5C511.035,468.465 486.368,493.299 461.5,518C424.955,546.475 385.955,550.142 344.5,529C339.833,525.667 335.167,522.333 330.5,519C284.632,473.299 238.965,427.465 193.5,381.5C201.082,386.545 209.082,391.045 217.5,395C254.646,407.501 288.646,401.834 319.5,378C344.701,352.632 370.035,327.465 395.5,302.5Z" style="fill:rgb(58,131,246);"/>
            </g>
            <g>
                <path d="M677.5,302.5C702.659,328.159 727.992,353.659 753.5,379C759.521,383.03 765.521,387.03 771.5,391C810.94,408.68 847.606,404.513 881.5,378.5C832.645,428.522 782.978,477.688 732.5,526C704.236,543.703 674.236,547.369 642.5,537C630.875,532.191 620.208,525.858 610.5,518C586.277,492.276 561.277,467.443 535.5,443.5C554.779,424.887 573.779,405.887 592.5,386.5C601.357,378.988 609.023,370.655 615.5,361.5C616.675,361.719 617.675,361.386 618.5,360.5C621.175,356.658 624.509,353.492 628.5,351C643.305,335.44 658.305,320.107 673.5,305C674.984,304.338 676.317,303.504 677.5,302.5Z" style="fill:rgb(82,179,248);"/>
            </g>
        </g>
    </g>
</svg>
