<svg width="107" height="109" viewBox="0 0 107 109" fill="none" xmlns="http://www.w3.org/2000/svg">
<g opacity="0.2">
<path d="M53.5 108.5C83.3234 108.5 107.5 84.3234 107.5 54.5C107.5 24.6766 83.3234 0.5 53.5 0.5C23.6766 0.5 -0.5 24.6766 -0.5 54.5C-0.5 84.3234 23.6766 108.5 53.5 108.5Z" fill="#B8BAC0"/>
<path d="M53.5 81.5157C47.2126 81.5157 41.5081 78.8178 37.2993 74.457C37.2961 77.0704 37.2012 80.8423 36.5082 83.5945C36.9627 83.8724 37.3155 84.3285 37.3843 84.8959C38.2825 92.2048 45.2101 97.7157 53.5 97.7157C61.7881 97.7157 68.7156 92.2041 69.6156 84.8959C69.6853 84.3278 70.0305 83.8724 70.492 83.5954C69.799 80.843 69.7038 77.0706 69.7006 74.457C65.4918 78.8178 59.7874 81.5157 53.5 81.5157Z" fill="white"/>
<path d="M69.349 74.7891C65.1754 78.9465 59.6195 81.5157 53.5 81.5157C47.2126 81.5157 41.5081 78.8178 37.2993 74.457C37.2961 77.0704 37.2012 80.8423 36.5082 83.5945C36.9627 83.8724 37.3155 84.3285 37.3843 84.8959C37.7815 88.1267 39.3594 91.0033 41.7095 93.2106C52.5473 91.6846 64.8483 80.9829 69.349 74.7891Z" fill="#D7DBE0"/>
<path d="M69.7 36.5157H39.1C34.1376 36.5157 30.1 40.5534 30.1 45.5157V56.3157C30.1 70.2113 40.5976 81.5157 53.5 81.5157C66.4024 81.5157 76.9 70.2113 76.9 56.3157V43.7157C76.9 39.7458 73.6708 36.5157 69.7 36.5157Z" fill="white"/>
<path d="M66.0999 16.7157H42.7C39.3144 16.7157 36.4686 19.0642 35.702 22.2167C29.5057 23.0044 24.7 28.3095 24.7 34.7157V43.7157C24.7 48.3545 26.6692 52.6822 30.1 55.7577V45.5157C30.1 40.5533 34.1376 36.5157 39.1 36.5157H69.7C73.6707 36.5157 76.8999 39.7456 76.8999 43.7157V55.7557C80.3314 52.6806 82.2999 48.3534 82.2999 43.7157V32.9157C82.2999 23.9834 75.0331 16.7157 66.0999 16.7157Z" fill="#5C546A"/>
<path d="M13.3672 90.6224C23.2514 101.597 37.568 108.5 53.5 108.5C69.432 108.5 83.7485 101.597 93.6328 90.6224C91.9093 88.2923 89.4788 86.3992 86.3536 85.5241C86.2816 85.5039 86.2094 85.4881 86.1356 85.4776L71.7673 83.3216C71.6793 83.3083 71.4912 83.3014 71.4017 83.3014C70.4929 83.3014 69.7265 83.9791 69.6156 84.8815C68.7156 92.1895 61.7881 97.7014 53.5 97.7014C45.2101 97.7014 38.2826 92.1907 37.3844 84.8815C37.2719 83.9525 36.4351 83.2539 35.5526 83.302C35.4471 83.296 35.3434 83.3047 35.2327 83.3214L20.8644 85.4773C20.7906 85.4879 20.7186 85.5037 20.6464 85.5239C17.5211 86.3994 15.0907 88.2923 13.3672 90.6224Z" fill="#5C546A"/>
</g>
</svg>
